<?xml version="1.0" encoding="UTF-8"?>
<!-- Generated by jsxcad -->
<!DOCTYPE svg PUBLIC "-//W3C//DTD SVG 1.1 Tiny//EN" "http://www.w3.org/Graphics/SVG/1.1/DTD/svg11-tiny.dtd">
<svg viewBox="-250 -250 500 500" width="500" height="500" xmlns="http://www.w3.org/2000/svg"><path d="M-48.292359385996065,-81.33576196015916L-47.109268139372304,-104.84897272406582L-103.73168892877867,-88.61874787744996z" style="fill:rgb(83,212,212)"/><path d="M-39.538883630366136,-89.96717203004665L-47.109268139372304,-104.84897272406582L-48.292359385996065,-81.33576196015916z" style="fill:rgb(247,158,158)"/><path d="M-48.292359385996065,-81.33576196015916L-103.73168892877867,-88.61874787744996L-106.29898738043228,-65.04497737675723z" style="fill:rgb(83,212,212)"/><path d="M-39.538883630366136,-89.96717203004665L-48.292359385996065,-81.33576196015916L-40.51864429771347,-66.3979963453041z" style="fill:rgb(247,158,158)"/><path d="M104.48187097824838,-124.2414179248401L101.82689912087181,-147.5399867912269L40.94084363654127,-130.08763479069222z" style="fill:rgb(83,212,212)"/><path d="M107.6709571546819,-131.53689387824164L101.82689912087181,-147.5399867912269L104.48187097824838,-124.2414179248401z" style="fill:rgb(247,158,158)"/><path d="M104.48187097824838,-124.2414179248401L40.94084363654127,-130.08763479069222L41.9922401257287,-106.69161570797863z" style="fill:rgb(83,212,212)"/><path d="M107.6709571546819,-131.53689387824164L104.48187097824838,-124.2414179248401L110.43954984350694,-108.14845647809757z" style="fill:rgb(247,158,158)"/><path d="M-106.29898738043228,-65.04497737675723L-125.26229563808067,-59.719251244462725L-126.94523526286072,124.53555578764093zM-48.292359385996065,-81.33576196015916L-106.29898738043228,-65.04497737675723L-57.83747107257727,108.36746126298435zM41.9922401257287,-106.69161570797863L-48.292359385996065,-81.33576196015916L-57.83747107257727,108.36746126298435zM-57.83747107257727,108.36746126298435L104.48187097824838,-124.2414179248401L41.9922401257287,-106.69161570797863zM-125.26229563808067,-59.719251244462725L-149.4520451329307,129.80113299921612L-126.94523526286072,124.53555578764093z" style="fill:rgb(83,212,212)"/><path d="M131.431257765059,-113.95412538747195L125.73841193303767,-130.21117908321895L151.89775647819167,59.29885973844941z" style="fill:rgb(247,158,158)"/><path d="M126.08523946892855,65.33783020451263L125.73841193303767,-130.21117908321895L104.48187097824838,-124.2414179248401zM-106.29898738043228,-65.04497737675723L-126.94523526286072,124.53555578764093L-57.83747107257727,108.36746126298435zM-57.83747107257727,108.36746126298435L50.51758959658312,83.0172533610673L104.48187097824838,-124.2414179248401z" style="fill:rgb(83,212,212)"/><path d="M-116.5892708243734,138.8588936588516L-149.4520451329307,129.80113299921612L-138.8050581340945,143.96171842357487zM-116.5892708243734,138.8588936588516L-126.94523526286072,124.53555578764093L-149.4520451329307,129.80113299921612z" style="fill:rgb(127,37,217)"/><path d="M50.51758959658312,83.0172533610673L126.08523946892855,65.33783020451263L104.48187097824838,-124.2414179248401z" style="fill:rgb(83,212,212)"/><path d="M131.431257765059,-113.95412538747195L151.89775647819167,59.29885973844941L158.31799382583355,75.71441928598708z" style="fill:rgb(247,158,158)"/><path d="M126.08523946892855,65.33783020451263L151.89775647819167,59.29885973844941L125.73841193303767,-130.21117908321895z" style="fill:rgb(83,212,212)"/><path d="M58.439391505769045,98.65591038874817L-57.83747107257727,108.36746126298435L-48.399997096819455,123.19625350195331z" style="fill:rgb(127,37,217)"/><path d="M-126.94523526286072,124.53555578764093L-59.63102751367957,144.0132922476612L-57.83747107257727,108.36746126298435z" style="fill:rgb(83,212,212)"/><path d="M-48.399997096819455,123.19625350195331L-57.83747107257727,108.36746126298435L-59.63102751367957,144.0132922476612z" style="fill:rgb(247,158,158)"/><path d="M-49.876316751393354,158.7106790807006L-130.81156062109017,160.03740100610574L-120.08306082595243,174.21881053926288z" style="fill:rgb(127,37,217)"/><path d="M-126.94523526286072,124.53555578764093L-130.81156062109017,160.03740100610574L-59.63102751367957,144.0132922476612z" style="fill:rgb(83,212,212)"/><path d="M-48.399997096819455,123.19625350195331L-59.63102751367957,144.0132922476612L-49.876316751393354,158.7106790807006z" style="fill:rgb(247,158,158)"/><path d="M58.439391505769045,98.65591038874817L50.51758959658312,83.0172533610673L-57.83747107257727,108.36746126298435zM-49.876316751393354,158.7106790807006L-59.63102751367957,144.0132922476612L-130.81156062109017,160.03740100610574zM158.31799382583355,75.71441928598708L126.08523946892855,65.33783020451263L132.89544229906733,81.55382439688769zM158.31799382583355,75.71441928598708L151.89775647819167,59.29885973844941L126.08523946892855,65.33783020451263z" style="fill:rgb(127,37,217)"/><path d="M50.51758959658312,83.0172533610673L130.1813287082135,101.2828504725034L126.08523946892855,65.33783020451263z" style="fill:rgb(83,212,212)"/><path d="M132.89544229906733,81.55382439688769L126.08523946892855,65.33783020451263L130.1813287082135,101.2828504725034z" style="fill:rgb(247,158,158)"/><path d="M137.13876543121737,117.40046117960537L52.12806813756712,118.85414939852902L60.271064781641336,134.3799481348888z" style="fill:rgb(127,37,217)"/><path d="M50.51758959658312,83.0172533610673L52.12806813756712,118.85414939852902L130.1813287082135,101.2828504725034z" style="fill:rgb(83,212,212)"/><path d="M132.89544229906733,81.55382439688769L130.1813287082135,101.2828504725034L137.13876543121737,117.40046117960537z" style="fill:rgb(247,158,158)"/><path d="M137.13876543121737,117.40046117960537L130.1813287082135,101.2828504725034L52.12806813756712,118.85414939852902z" style="fill:rgb(127,37,217)"/></svg>
