<?xml version="1.0" encoding="UTF-8"?>
<!-- Generated by jsxcad -->
<!DOCTYPE svg PUBLIC "-//W3C//DTD SVG 1.1 Tiny//EN" "http://www.w3.org/Graphics/SVG/1.1/DTD/svg11-tiny.dtd">
<svg viewBox="-250 -250 500 500" width="500" height="500" xmlns="http://www.w3.org/2000/svg"><path d="M-54.317211850356884,-74.77871141207272L-90.78468311670187,-81.45172352604041L-82.63923703289406,-66.85916603398765z" style="fill:rgb(127,37,217)"/><path d="M-82.63923703289406,-66.85916603398765L-91.19040809616776,-77.16289374946295L-83.0037389727959,-62.561948716323634z" style="fill:rgb(247,158,158)"/><path d="M-47.109268139372304,-104.84897272406582L-103.73168892877867,-88.61874787744996L-90.78468311670187,-81.45172352604041z" style="fill:rgb(83,212,212)"/><path d="M-82.63923703289406,-66.85916603398765L-90.78468311670187,-81.45172352604041L-91.19040809616776,-77.16289374946295z" style="fill:rgb(247,158,158)"/><path d="M-54.317211850356884,-74.77871141207272L-62.14606087006333,-89.58193620120086L-90.78468311670187,-81.45172352604041z" style="fill:rgb(127,37,217)"/><path d="M-47.109268139372304,-104.84897272406582L-90.78468311670187,-81.45172352604041L-62.14606087006333,-89.58193620120086z" style="fill:rgb(83,212,212)"/><path d="M-39.538883630366136,-89.96717203004665L-47.109268139372304,-104.84897272406582L-48.292359385996065,-81.33576196015916zM-39.538883630366136,-89.96717203004665L-48.292359385996065,-81.33576196015916L-40.51864429771347,-66.3979963453041z" style="fill:rgb(247,158,158)"/><path d="M-48.292359385996065,-81.33576196015916L-47.109268139372304,-104.84897272406582L-62.14606087006333,-89.58193620120086z" style="fill:rgb(83,212,212)"/><path d="M93.5887118412512,-116.13689236911962L56.67888312299899,-123.31510990547002L63.137217457313945,-107.62189288675656z" style="fill:rgb(127,37,217)"/><path d="M63.137217457313945,-107.62189288675656L56.94167277311632,-119.05975508869818L63.425989108697735,-103.35235350269188z" style="fill:rgb(247,158,158)"/><path d="M101.82689912087181,-147.5399867912269L40.94084363654127,-130.08763479069222L56.67888312299899,-123.31510990547002z" style="fill:rgb(83,212,212)"/><path d="M63.137217457313945,-107.62189288675656L56.67888312299899,-123.31510990547002L56.94167277311632,-119.05975508869818z" style="fill:rgb(247,158,158)"/><path d="M93.5887118412512,-116.13689236911962L87.50084811052346,-132.06514973277737L56.67888312299899,-123.31510990547002z" style="fill:rgb(127,37,217)"/><path d="M101.82689912087181,-147.5399867912269L56.67888312299899,-123.31510990547002L87.50084811052346,-132.06514973277737z" style="fill:rgb(83,212,212)"/><path d="M107.6709571546819,-131.53689387824164L101.82689912087181,-147.5399867912269L104.48187097824838,-124.2414179248401zM107.6709571546819,-131.53689387824164L104.48187097824838,-124.2414179248401L110.43954984350694,-108.14845647809757z" style="fill:rgb(247,158,158)"/><path d="M104.48187097824838,-124.2414179248401L101.82689912087181,-147.5399867912269L87.50084811052346,-132.06514973277737zM-106.29898738043228,-65.04497737675723L-125.26229563808067,-59.719251244462725L-149.4520451329307,129.80113299921612zM-111.61430965365096,138.73369035765572L-90.78468311670187,-81.45172352604041L-103.73168892877867,-88.61874787744996zM-111.61430965365096,138.73369035765572L-103.73168892877867,-88.61874787744996L-106.29898738043228,-65.04497737675723zM-62.425817064268585,-85.29851517679029L-91.19040809616776,-77.16289374946295L-111.00709725689345,132.31498128199377zM70.2844369065242,96.99972670138787L-62.14606087006333,-89.58193620120086L-62.425817064268585,-85.29851517679029zM70.2844369065242,96.99972670138787L-48.292359385996065,-81.33576196015916L-62.14606087006333,-89.58193620120086zM70.2844369065242,96.99972670138787L56.67888312299899,-123.31510990547002L40.94084363654127,-130.08763479069222zM70.2844369065242,96.99972670138787L40.94084363654127,-130.08763479069222L41.9922401257287,-106.69161570797863zM70.2844369065242,96.99972670138787L41.9922401257287,-106.69161570797863L-48.292359385996065,-81.33576196015916zM87.90960442757238,-127.81855588771509L56.94167277311632,-119.05975508869818L69.8844951463928,90.52346671685814zM126.08523946892855,65.33783020451263L104.48187097824838,-124.2414179248401L87.50084811052346,-132.06514973277737zM-106.29898738043228,-65.04497737675723L-149.4520451329307,129.80113299921612L-126.94523526286072,124.53555578764093z" style="fill:rgb(83,212,212)"/><path d="M131.431257765059,-113.95412538747195L125.73841193303767,-130.21117908321895L151.89775647819167,59.29885973844941z" style="fill:rgb(247,158,158)"/><path d="M126.08523946892855,65.33783020451263L125.73841193303767,-130.21117908321895L104.48187097824838,-124.2414179248401zM130.1813287082135,101.2828504725034L87.50084811052346,-132.06514973277737L87.90960442757238,-127.81855588771509zM-111.61430965365096,138.73369035765572L-106.29898738043228,-65.04497737675723L-126.94523526286072,124.53555578764093zM-62.425817064268585,-85.29851517679029L-111.00709725689345,132.31498128199377L-76.1119263994131,124.25312186588997zM-62.425817064268585,-85.29851517679029L-57.83747107257727,108.36746126298435L50.51758959658312,83.0172533610673zM-62.425817064268585,-85.29851517679029L-59.63102751367957,144.0132922476612L-57.83747107257727,108.36746126298435zM-62.425817064268585,-85.29851517679029L-76.1119263994131,124.25312186588997L-59.63102751367957,144.0132922476612zM70.2844369065242,96.99972670138787L-62.425817064268585,-85.29851517679029L50.51758959658312,83.0172533610673z" style="fill:rgb(83,212,212)"/><path d="M-116.5892708243734,138.8588936588516L-149.4520451329307,129.80113299921612L-138.8050581340945,143.96171842357487zM-116.5892708243734,138.8588936588516L-126.94523526286072,124.53555578764093L-149.4520451329307,129.80113299921612z" style="fill:rgb(127,37,217)"/><path d="M131.431257765059,-113.95412538747195L151.89775647819167,59.29885973844941L158.31799382583355,75.71441928598708z" style="fill:rgb(247,158,158)"/><path d="M87.90960442757238,-127.81855588771509L69.8844951463928,90.52346671685814L108.07682102751126,81.69986453363227z" style="fill:rgb(83,212,212)"/><path d="M-66.32865120742096,138.91248762465366L-111.00709725689345,132.31498128199377L-100.75560175094635,146.71982402705788z" style="fill:rgb(127,37,217)"/><path d="M-100.75560175094635,146.71982402705788L-111.61430965365096,138.73369035765572L-101.29795942198326,153.11383327972507z" style="fill:rgb(247,158,158)"/><path d="M126.08523946892855,65.33783020451263L151.89775647819167,59.29885973844941L125.73841193303767,-130.21117908321895zM130.1813287082135,101.2828504725034L126.08523946892855,65.33783020451263L87.50084811052346,-132.06514973277737z" style="fill:rgb(83,212,212)"/><path d="M-100.75560175094635,146.71982402705788L-111.00709725689345,132.31498128199377L-111.61430965365096,138.73369035765572z" style="fill:rgb(247,158,158)"/><path d="M130.1813287082135,101.2828504725034L87.90960442757238,-127.81855588771509L108.07682102751126,81.69986453363227z" style="fill:rgb(83,212,212)"/><path d="M-66.32865120742096,138.91248762465366L-76.1119263994131,124.25312186588997L-111.00709725689345,132.31498128199377zM58.439391505769045,98.65591038874817L-57.83747107257727,108.36746126298435L-48.399997096819455,123.19625350195331z" style="fill:rgb(127,37,217)"/><path d="M-111.61430965365096,138.73369035765572L-126.94523526286072,124.53555578764093L-130.81156062109017,160.03740100610574z" style="fill:rgb(83,212,212)"/><path d="M-48.399997096819455,123.19625350195331L-57.83747107257727,108.36746126298435L-59.63102751367957,144.0132922476612z" style="fill:rgb(247,158,158)"/><path d="M-49.876316751393354,158.7106790807006L-130.81156062109017,160.03740100610574L-120.08306082595243,174.21881053926288z" style="fill:rgb(127,37,217)"/><path d="M-76.53197301864391,130.68456666430538L-111.61430965365096,138.73369035765572L-130.81156062109017,160.03740100610574z" style="fill:rgb(83,212,212)"/><path d="M-48.399997096819455,123.19625350195331L-59.63102751367957,144.0132922476612L-49.876316751393354,158.7106790807006z" style="fill:rgb(247,158,158)"/><path d="M58.439391505769045,98.65591038874817L50.51758959658312,83.0172533610673L-57.83747107257727,108.36746126298435z" style="fill:rgb(127,37,217)"/><path d="M-76.1119263994131,124.25312186588997L-76.53197301864391,130.68456666430538L-59.63102751367957,144.0132922476612zM-76.53197301864391,130.68456666430538L-130.81156062109017,160.03740100610574L-59.63102751367957,144.0132922476612z" style="fill:rgb(83,212,212)"/><path d="M-49.876316751393354,158.7106790807006L-59.63102751367957,144.0132922476612L-130.81156062109017,160.03740100610574zM115.22850275806425,97.73900366668998L69.8844951463928,90.52346671685814L77.60396427783739,106.27148969957473z" style="fill:rgb(127,37,217)"/><path d="M77.60396427783739,106.27148969957473L70.2844369065242,96.99972670138787L78.04068808447293,112.72852758211644z" style="fill:rgb(247,158,158)"/><path d="M158.31799382583355,75.71441928598708L126.08523946892855,65.33783020451263L132.89544229906733,81.55382439688769z" style="fill:rgb(127,37,217)"/><path d="M77.60396427783739,106.27148969957473L69.8844951463928,90.52346671685814L70.2844369065242,96.99972670138787z" style="fill:rgb(247,158,158)"/><path d="M115.22850275806425,97.73900366668998L108.07682102751126,81.69986453363227L69.8844951463928,90.52346671685814zM158.31799382583355,75.71441928598708L151.89775647819167,59.29885973844941L126.08523946892855,65.33783020451263z" style="fill:rgb(127,37,217)"/><path d="M50.51758959658312,83.0172533610673L52.12806813756712,118.85414939852902L70.2844369065242,96.99972670138787z" style="fill:rgb(83,212,212)"/><path d="M132.89544229906733,81.55382439688769L126.08523946892855,65.33783020451263L130.1813287082135,101.2828504725034z" style="fill:rgb(247,158,158)"/><path d="M137.13876543121737,117.40046117960537L52.12806813756712,118.85414939852902L60.271064781641336,134.3799481348888z" style="fill:rgb(127,37,217)"/><path d="M52.12806813756712,118.85414939852902L108.70110532481176,88.1855914665521L70.2844369065242,96.99972670138787z" style="fill:rgb(83,212,212)"/><path d="M132.89544229906733,81.55382439688769L130.1813287082135,101.2828504725034L137.13876543121737,117.40046117960537z" style="fill:rgb(247,158,158)"/><path d="M130.1813287082135,101.2828504725034L108.07682102751126,81.69986453363227L108.70110532481176,88.1855914665521zM52.12806813756712,118.85414939852902L130.1813287082135,101.2828504725034L108.70110532481176,88.1855914665521z" style="fill:rgb(83,212,212)"/><path d="M137.13876543121737,117.40046117960537L130.1813287082135,101.2828504725034L52.12806813756712,118.85414939852902z" style="fill:rgb(127,37,217)"/></svg>
